<mxfile host="app.diagrams.net" agent="Mozilla/5.0 (Windows NT 10.0; Win64; x64) AppleWebKit/537.36 (KHTML, like Gecko) Chrome/135.0.0.0 Safari/537.36" version="26.2.14">
  <diagram name="Page-1" id="9xYf71dzz5W9HyN54voS">
    <mxGraphModel dx="2253" dy="1900" grid="0" gridSize="10" guides="0" tooltips="1" connect="1" arrows="1" fold="1" page="1" pageScale="1" pageWidth="827" pageHeight="1169" math="0" shadow="0">
      <root>
        <mxCell id="0" />
        <mxCell id="1" parent="0" />
        <mxCell id="k2o65sQ9iLGO9QFqGN_a-1" value="&lt;font&gt;ATS&lt;/font&gt;" style="fontColor=#0066CC;verticalAlign=top;verticalLabelPosition=bottom;labelPosition=center;align=center;html=1;outlineConnect=0;fillColor=#CCCCCC;strokeColor=#6881B3;gradientColor=none;gradientDirection=north;strokeWidth=2;shape=mxgraph.networks.biometric_reader;" vertex="1" parent="1">
          <mxGeometry x="-30" y="154.5" width="60" height="100" as="geometry" />
        </mxCell>
        <mxCell id="k2o65sQ9iLGO9QFqGN_a-2" value="Check: Whitelisted IPs" style="image;aspect=fixed;html=1;points=[];align=center;fontSize=12;image=img/lib/azure2/general/Storage_Queue.svg;" vertex="1" parent="1">
          <mxGeometry x="190" y="189" width="93.54" height="76" as="geometry" />
        </mxCell>
        <mxCell id="k2o65sQ9iLGO9QFqGN_a-3" value="" style="endArrow=classic;html=1;rounded=0;flowAnimation=0;" edge="1" parent="1">
          <mxGeometry width="50" height="50" relative="1" as="geometry">
            <mxPoint x="-0.17999999999999972" y="288" as="sourcePoint" />
            <mxPoint x="-0.17999999999999972" y="382.5" as="targetPoint" />
          </mxGeometry>
        </mxCell>
        <mxCell id="k2o65sQ9iLGO9QFqGN_a-4" value="" style="sketch=0;outlineConnect=0;fontColor=#232F3E;gradientColor=none;fillColor=#DD344C;strokeColor=none;dashed=0;verticalLabelPosition=bottom;verticalAlign=top;align=center;html=1;fontSize=12;fontStyle=0;aspect=fixed;shape=mxgraph.aws4.email;" vertex="1" parent="1">
          <mxGeometry x="850" y="189" width="78" height="69" as="geometry" />
        </mxCell>
        <mxCell id="k2o65sQ9iLGO9QFqGN_a-5" value="" style="endArrow=classic;html=1;rounded=0;" edge="1" parent="1" source="k2o65sQ9iLGO9QFqGN_a-6">
          <mxGeometry width="50" height="50" relative="1" as="geometry">
            <mxPoint x="310" y="227.5" as="sourcePoint" />
            <mxPoint x="450" y="224" as="targetPoint" />
          </mxGeometry>
        </mxCell>
        <mxCell id="k2o65sQ9iLGO9QFqGN_a-8" value="" style="rounded=0;whiteSpace=wrap;html=1;" vertex="1" parent="1">
          <mxGeometry x="480" y="199" width="180" height="60" as="geometry" />
        </mxCell>
        <mxCell id="k2o65sQ9iLGO9QFqGN_a-9" value="" style="verticalLabelPosition=bottom;html=1;verticalAlign=top;align=center;strokeColor=none;fillColor=#00BEF2;shape=mxgraph.azure.user;" vertex="1" parent="1">
          <mxGeometry x="492" y="207" width="38" height="40" as="geometry" />
        </mxCell>
        <mxCell id="k2o65sQ9iLGO9QFqGN_a-10" value="" style="verticalLabelPosition=bottom;html=1;verticalAlign=top;align=center;strokeColor=none;fillColor=#00BEF2;shape=mxgraph.azure.user;" vertex="1" parent="1">
          <mxGeometry x="600" y="209" width="38" height="40" as="geometry" />
        </mxCell>
        <mxCell id="k2o65sQ9iLGO9QFqGN_a-11" value="" style="verticalLabelPosition=bottom;html=1;verticalAlign=top;align=center;strokeColor=none;fillColor=#00BEF2;shape=mxgraph.azure.user;" vertex="1" parent="1">
          <mxGeometry x="546" y="209" width="38" height="40" as="geometry" />
        </mxCell>
        <mxCell id="k2o65sQ9iLGO9QFqGN_a-12" value="&lt;font style=&quot;font-size: 11px;&quot;&gt;(Department Heads)&lt;/font&gt;" style="text;html=1;align=center;verticalAlign=middle;whiteSpace=wrap;rounded=0;" vertex="1" parent="1">
          <mxGeometry x="515" y="267" width="110" height="30" as="geometry" />
        </mxCell>
        <mxCell id="k2o65sQ9iLGO9QFqGN_a-14" value="" style="endArrow=classic;html=1;rounded=0;" edge="1" parent="1">
          <mxGeometry width="50" height="50" relative="1" as="geometry">
            <mxPoint x="690" y="229.5" as="sourcePoint" />
            <mxPoint x="830" y="228.5" as="targetPoint" />
          </mxGeometry>
        </mxCell>
        <mxCell id="k2o65sQ9iLGO9QFqGN_a-17" value="" style="image;html=1;image=img/lib/clip_art/computers/Database_128x128.png" vertex="1" parent="1">
          <mxGeometry x="-40" y="408" width="80" height="50" as="geometry" />
        </mxCell>
        <mxCell id="k2o65sQ9iLGO9QFqGN_a-18" value="&lt;font style=&quot;font-size: 11px;&quot;&gt;(Storage: ATS IN/OUT)&lt;/font&gt;" style="text;html=1;align=center;verticalAlign=middle;whiteSpace=wrap;rounded=0;" vertex="1" parent="1">
          <mxGeometry x="-77.5" y="470" width="155" height="30" as="geometry" />
        </mxCell>
        <mxCell id="k2o65sQ9iLGO9QFqGN_a-19" value="" style="endArrow=classic;html=1;rounded=0;flowAnimation=0;" edge="1" parent="1">
          <mxGeometry width="50" height="50" relative="1" as="geometry">
            <mxPoint x="40" y="226.5" as="sourcePoint" />
            <mxPoint x="180" y="226.5" as="targetPoint" />
          </mxGeometry>
        </mxCell>
        <mxCell id="k2o65sQ9iLGO9QFqGN_a-20" value="" style="endArrow=classic;html=1;rounded=0;" edge="1" parent="1" target="k2o65sQ9iLGO9QFqGN_a-6">
          <mxGeometry width="50" height="50" relative="1" as="geometry">
            <mxPoint x="310" y="224" as="sourcePoint" />
            <mxPoint x="450" y="226.5" as="targetPoint" />
          </mxGeometry>
        </mxCell>
        <mxCell id="k2o65sQ9iLGO9QFqGN_a-6" value="Not Found IPs" style="sketch=0;aspect=fixed;pointerEvents=1;shadow=0;dashed=0;html=1;strokeColor=none;labelPosition=center;verticalLabelPosition=bottom;verticalAlign=top;align=center;shape=mxgraph.mscae.enterprise.not_allowed;fillColor=#EA1C24;" vertex="1" parent="1">
          <mxGeometry x="350" y="199" width="50" height="50" as="geometry" />
        </mxCell>
        <mxCell id="k2o65sQ9iLGO9QFqGN_a-23" value="&lt;font style=&quot;font-size: 11px;&quot;&gt;Notification&lt;/font&gt;" style="text;html=1;align=center;verticalAlign=middle;whiteSpace=wrap;rounded=0;" vertex="1" parent="1">
          <mxGeometry x="827" y="267" width="110" height="30" as="geometry" />
        </mxCell>
        <mxCell id="k2o65sQ9iLGO9QFqGN_a-24" value="&lt;font style=&quot;font-size: 35px;&quot;&gt;ATS&lt;/font&gt;" style="rounded=0;whiteSpace=wrap;html=1;" vertex="1" parent="1">
          <mxGeometry x="-36" y="-50" width="979" height="150" as="geometry" />
        </mxCell>
      </root>
    </mxGraphModel>
  </diagram>
</mxfile>
